HIERARCHY
ROOT Hips
{
	OFFSET 0.000000 0.000000 0.000000
	CHANNELS 6 Xposition Yposition Zposition Zrotation Yrotation Xrotation 
	JOINT LowerBack
	{
		OFFSET 0.000000 0.000000 0.000000
		CHANNELS 3 Zrotation Yrotation Xrotation
		JOINT Spine
		{
			OFFSET 0.028270 2.035590 -0.193380
			CHANNELS 3 Zrotation Yrotation Xrotation
			JOINT Spine1
			{
				OFFSET 0.056720 2.048850 -0.042750
				CHANNELS 3 Zrotation Yrotation Xrotation
				JOINT Neck
				{
					OFFSET 0.000000 0.000000 0.000000
					CHANNELS 3 Zrotation Yrotation Xrotation
					JOINT Neck1
					{
						OFFSET -0.054170 1.746240 0.172020
						CHANNELS 3 Zrotation Yrotation Xrotation
						JOINT Head
						{
							OFFSET 0.104070 1.761360 -0.123970
							CHANNELS 3 Zrotation Yrotation Xrotation
							End Site
							{
								OFFSET 0.000000 0.000000 0.000000
							}
						}
					}
				}
				JOINT LeftShoulder
				{
					OFFSET 0.000000 0.000000 0.000000
					CHANNELS 3 Zrotation Yrotation Xrotation
					JOINT LeftArm
					{
						OFFSET 3.362410 1.200890 -0.311210
						CHANNELS 3 Zrotation Yrotation Xrotation
						JOINT LeftForeArm
						{
							OFFSET 4.983000 -0.000000 -0.000000
							CHANNELS 3 Zrotation Yrotation Xrotation
							JOINT LeftHand
							{
								OFFSET 3.483560 -0.000000 -0.000000
								CHANNELS 3 Zrotation Yrotation Xrotation
								JOINT LeftFingerBase
								{
									OFFSET 0.000000 0.000000 0.000000
									CHANNELS 3 Zrotation Yrotation Xrotation
									JOINT LeftHandIndex1
									{
										OFFSET 0.715260 -0.000000 -0.000000
										CHANNELS 3 Zrotation Yrotation Xrotation
										End Site
										{
											OFFSET 0.000000 0.000000 0.000000
										}
									}
								}
								JOINT LThumb
								{
									OFFSET 0.000000 0.000000 0.000000
									CHANNELS 3 Zrotation Yrotation Xrotation
									End Site
									{
										OFFSET 0.000000 0.000000 0.000000
									}
								}
							}
						}
					}
				}
				JOINT RightShoulder
				{
					OFFSET 0.000000 0.000000 0.000000
					CHANNELS 3 Zrotation Yrotation Xrotation
					JOINT RightArm
					{
						OFFSET -3.136600 1.374050 -0.404650
						CHANNELS 3 Zrotation Yrotation Xrotation
						JOINT RightForeArm
						{
							OFFSET -5.241900 -0.000000 -0.000000
							CHANNELS 3 Zrotation Yrotation Xrotation
							JOINT RightHand
							{
								OFFSET -3.444170 -0.000000 -0.000000
								CHANNELS 3 Zrotation Yrotation Xrotation
								JOINT RightFingerBase
								{
									OFFSET 0.000000 0.000000 0.000000
									CHANNELS 3 Zrotation Yrotation Xrotation
									JOINT RightHandIndex1
									{
										OFFSET -0.622530 -0.000000 -0.000000
										CHANNELS 3 Zrotation Yrotation Xrotation
										End Site
										{
											OFFSET 0.000000 0.000000 0.000000
										}
									}
								}
								JOINT RThumb
								{
									OFFSET 0.000000 0.000000 0.000000
									CHANNELS 3 Zrotation Yrotation Xrotation
									End Site
									{
										OFFSET 0.000000 0.000000 0.000000
									}
								}
							}
						}
					}
				}
			}
		}
	}
}
}
MOTION
Frames: 16
Frame Time: 0.008333
4.453894 17.322666 0.868346 -174.926879 -74.799542 -175.569106 2.979715 -0.066214 -10.599705 0.065635 -0.646570 -5.546949 -4.594707 -0.631005 -3.649747 4.790850 -2.693671 4.348597 -1.243645 -0.282502 3.369802 0.000000 0.000000 0.000000 14.961001 14.070367 -6.953958 -14.720127 -60.535716 -59.993705 175.434161 -56.630145 179.611547 23.567190 -18.700067 -4.291530 -0.351055 1.333931 0.000000 0.000000 0.000000 0.000000 0.000000 0.000000 0.000000 -6.593153 -5.814478 -8.265386 64.049486 58.418341 -14.661489 -174.504493 54.505851 179.690737 -13.383644 21.802825 -2.744733 -0.081034 -1.302693 0.000000 0.000000 0.000000 0.000000 0.000000 0.000000 0.000000 
4.452948 17.327733 0.874486 -174.898802 -74.074182 -175.311919 3.069351 -0.125834 -10.663553 0.102943 -0.722845 -5.595416 -4.560107 -0.713493 -3.787038 4.864180 -2.637158 4.375596 -1.205204 -0.281221 3.381266 0.000000 0.000000 0.000000 15.462864 13.940243 -7.046443 -12.224235 -60.041691 -62.927209 175.471890 -57.333747 179.610207 24.039494 -18.684061 -4.372917 -0.359172 1.318750 0.000000 0.000000 0.000000 0.000000 0.000000 0.000000 0.000000 -6.540172 -5.626495 -8.232654 64.088173 58.664720 -14.657660 -174.505690 54.775783 179.690024 -13.376198 21.823656 -2.745152 -0.083786 -1.301829 0.000000 0.000000 0.000000 0.000000 0.000000 0.000000 0.000000 
4.454376 17.332687 0.881120 -174.856804 -73.366856 -175.072928 3.155288 -0.219235 -10.701327 0.141062 -0.833891 -5.639690 -4.533737 -0.830309 -3.933131 4.944709 -2.561835 4.405468 -1.169829 -0.280141 3.393644 0.000000 0.000000 0.000000 15.987585 13.703660 -7.113555 -9.680967 -59.404953 -65.878462 175.534951 -58.166993 179.608414 24.571431 -18.742559 -4.482514 -0.367963 1.304675 0.000000 0.000000 0.000000 0.000000 0.000000 0.000000 0.000000 -6.450505 -5.407784 -8.195930 64.166692 58.943146 -14.630987 -174.509772 55.081259 179.689129 -13.388153 21.839035 -2.748968 -0.086166 -1.300633 0.000000 0.000000 0.000000 0.000000 0.000000 0.000000 0.000000 
4.458270 17.337479 0.888289 -174.802707 -72.684341 -174.852969 3.235061 -0.346735 -10.712781 0.179269 -0.979743 -5.678740 -4.516663 -0.981559 -4.084475 5.035197 -2.468071 4.435675 -1.136971 -0.279189 3.406175 0.000000 0.000000 0.000000 16.532525 13.360247 -7.150401 -7.142752 -58.627094 -68.794318 175.624905 -59.137806 179.605947 25.178228 -18.945151 -4.641321 -0.377374 1.293310 0.000000 0.000000 0.000000 0.000000 0.000000 0.000000 0.000000 -6.324110 -5.161482 -8.156127 64.283404 59.247173 -14.582348 -174.515966 55.419006 179.688013 -13.423894 21.846038 -2.756681 -0.088054 -1.299035 0.000000 0.000000 0.000000 0.000000 0.000000 0.000000 0.000000 
4.464538 17.342090 0.896036 -174.736776 -72.031977 -174.651495 3.305923 -0.507456 -10.698826 0.216989 -1.159085 -5.711649 -4.508688 -1.166040 -4.237161 5.138808 -2.356589 4.463781 -1.105828 -0.278277 3.418113 0.000000 0.000000 0.000000 17.094466 12.917960 -7.154967 -4.669605 -57.726205 -71.625760 175.742240 -60.262264 179.602713 25.869987 -19.347247 -4.867737 -0.387042 1.285715 0.000000 0.000000 0.000000 0.000000 0.000000 0.000000 0.000000 -6.162390 -4.891710 -8.114635 64.436659 59.569140 -14.511571 -174.523161 55.784822 179.686664 -13.486168 21.840736 -2.768492 -0.089395 -1.296965 0.000000 0.000000 0.000000 0.000000 0.000000 0.000000 0.000000 
4.473300 17.346559 0.904368 -174.661666 -71.412268 -174.470581 3.365502 -0.699532 -10.657979 0.253957 -1.369386 -5.737079 -4.508126 -1.381304 -4.387674 5.257931 -2.230103 4.487016 -1.075654 -0.277310 3.428604 0.000000 0.000000 0.000000 17.666528 12.392273 -7.128670 -2.319143 -56.737270 -74.336175 175.887497 -61.571085 179.598754 26.648499 -19.986160 -5.176755 -0.396197 1.282300 0.000000 0.000000 0.000000 0.000000 0.000000 0.000000 0.000000 -5.967624 -4.604106 -8.073219 64.626093 59.902624 -14.415952 -174.530280 56.176627 179.685053 -13.576679 21.820381 -2.784405 -0.090189 -1.294371 0.000000 0.000000 0.000000 0.000000 0.000000 0.000000 0.000000 
4.484366 17.350894 0.913246 -174.577288 -70.827768 -174.307696 3.409895 -0.920111 -10.595097 0.290066 -1.607087 -5.754929 -4.511527 -1.623995 -4.533050 5.395367 -2.090224 4.504586 -1.045029 -0.276185 3.437360 0.000000 0.000000 0.000000 18.269386 11.797344 -7.074711 -0.213535 -55.695116 -76.863817 176.057506 -63.086508 179.593866 27.546126 -20.899352 -5.592391 -0.404604 1.283262 0.000000 0.000000 0.000000 0.000000 0.000000 0.000000 0.000000 -5.746897 -4.304443 -8.033805 64.852077 60.235712 -14.295792 -174.536478 56.587201 179.683278 -13.683675 21.784553 -2.801720 -0.090758 -1.291358 0.000000 0.000000 0.000000 0.000000 0.000000 0.000000 0.000000 
4.497949 17.355143 0.922759 -174.485790 -70.278120 -174.168777 3.439227 -1.166082 -10.504321 0.325748 -1.868289 -5.763230 -4.515552 -1.890092 -4.670270 5.549723 -1.942083 4.514629 -1.013911 -0.274850 3.443748 0.000000 0.000000 0.000000 18.884297 11.157177 -6.999275 1.631406 -54.657549 -79.214168 176.255727 -64.870120 179.588473 28.535241 -22.040295 -6.106726 -0.410896 1.286996 0.000000 0.000000 0.000000 0.000000 0.000000 0.000000 0.000000 -5.504892 -3.999750 -7.998638 65.117973 60.566742 -14.141860 -174.541230 57.014419 179.681319 -13.807375 21.733218 -2.820440 -0.091125 -1.287962 0.000000 0.000000 0.000000 0.000000 0.000000 0.000000 0.000000 
4.513938 17.359376 0.932889 -174.387522 -69.763404 -174.055251 3.453004 -1.433526 -10.385436 0.361381 -2.148384 -5.761274 -4.516615 -2.174923 -4.796891 5.719392 -1.790475 4.517035 -0.982158 -0.273275 3.447659 0.000000 0.000000 0.000000 19.512893 10.488435 -6.908210 3.163189 -53.670631 -81.376658 176.483752 -66.973775 179.582634 29.613171 -23.345244 -6.711464 -0.414647 1.291843 0.000000 0.000000 0.000000 0.000000 0.000000 0.000000 0.000000 -5.249027 -3.697461 -7.969547 65.428467 60.890042 -13.947116 -174.544718 57.451721 179.679263 -13.937336 21.668899 -2.838566 -0.091533 -1.284348 0.000000 0.000000 0.000000 0.000000 0.000000 0.000000 0.000000 
4.532364 17.363617 0.943676 -174.284108 -69.284498 -173.969939 3.452153 -1.718783 -10.237473 0.397768 -2.443076 -5.748657 -4.510494 -2.474021 -4.911936 5.899371 -1.637353 4.512581 -0.949384 -0.271436 3.449236 0.000000 0.000000 0.000000 20.166572 9.803922 -6.805961 4.316327 -52.768010 -83.334189 176.744442 -69.449726 179.576277 30.769832 -24.722625 -7.386603 -0.415845 1.296268 -0.000000 0.000000 0.000000 0.000000 0.000000 0.000000 0.000000 -4.991625 -3.401646 -7.948709 65.791754 61.197484 -13.705098 -174.547447 57.896247 179.677230 -14.058458 21.595083 -2.853598 -0.092370 -1.280711 0.000000 0.000000 0.000000 0.000000 0.000000 0.000000 0.000000 
4.553223 17.367908 0.955153 -174.175868 -68.841842 -173.916646 3.438342 -2.017771 -10.056813 0.435025 -2.747698 -5.724546 -4.495799 -2.782482 -5.013391 6.085080 -1.490238 4.501585 -0.916765 -0.269384 3.448499 0.000000 0.000000 0.000000 20.828108 9.110763 -6.695694 5.123355 -51.973480 -85.116196 177.046027 -72.366711 179.569324 31.968934 -26.040704 -8.088543 -0.414902 1.298866 -0.000000 0.000000 0.000000 0.000000 0.000000 0.000000 0.000000 -4.737499 -3.120997 -7.937027 66.212481 61.488785 -13.406413 -174.550810 58.341588 179.675282 -14.164500 21.517285 -2.864637 -0.093687 -1.277234 0.000000 0.000000 0.000000 0.000000 0.000000 0.000000 0.000000 
4.576549 17.372290 0.967352 -174.064656 -68.436899 -173.898710 3.413857 -2.327062 -9.841236 0.473493 -3.058326 -5.688732 -4.470938 -3.096147 -5.100400 6.270372 -1.352369 4.484653 -0.884852 -0.267151 3.445568 0.000000 0.000000 0.000000 21.493502 8.410200 -6.576710 5.597187 -51.287671 -86.733946 177.397508 -75.779676 179.561524 33.169908 -27.186690 -8.770077 -0.412922 1.299633 -0.000000 0.000000 0.000000 0.000000 0.000000 0.000000 0.000000 -4.495355 -2.859935 -7.935796 66.696723 61.758875 -13.045642 -174.556162 58.784945 179.673518 -14.245255 21.441407 -2.870583 -0.095681 -1.274105 0.000000 0.000000 0.000000 0.000000 0.000000 0.000000 0.000000 
4.602413 17.376769 0.980319 -173.953313 -68.072012 -173.918750 3.380146 -2.643838 -9.588753 0.513132 -3.371642 -5.641010 -4.435381 -3.411527 -5.171347 6.449749 -1.227761 4.461173 -0.854255 -0.264753 3.440240 0.000000 0.000000 0.000000 22.152838 7.698585 -6.443740 5.791407 -50.689861 -88.211200 177.810530 -79.741946 179.552688 34.318037 -28.066400 -9.378604 -0.411451 1.299589 -0.000000 0.000000 0.000000 0.000000 0.000000 0.000000 0.000000 -4.272045 -2.623320 -7.946443 67.248788 62.004250 -12.618864 -174.564291 59.220237 179.671992 -14.294977 21.373072 -2.871035 -0.098411 -1.271500 0.000000 0.000000 0.000000 0.000000 0.000000 0.000000 0.000000 
4.630710 17.381299 0.994084 -173.842368 -67.749738 -173.978515 3.338613 -2.965963 -9.298714 0.553925 -3.685153 -5.581228 -4.388901 -3.726020 -5.223465 6.618532 -1.119437 4.428842 -0.825238 -0.262170 3.431850 0.000000 0.000000 0.000000 22.793942 6.969272 -6.285924 5.787940 -50.140596 -89.575097 178.296465 -84.296360 179.542740 35.354817 -28.605639 -9.861018 -0.412518 1.300388 -0.000000 0.000000 0.000000 0.000000 0.000000 0.000000 0.000000 -4.074007 -2.414812 -7.970852 67.870033 62.220894 -12.126238 -174.575578 59.642627 179.670728 -14.310469 21.317048 -2.866093 -0.101888 -1.269550 0.000000 0.000000 0.000000 0.000000 0.000000 0.000000 0.000000 
4.661297 17.385889 1.008649 -173.732778 -67.472069 -174.077972 3.289784 -3.291811 -8.972156 0.595800 -3.996938 -5.509091 -4.331210 -4.037691 -5.252017 6.773311 -1.029949 4.382921 -0.797736 -0.259324 3.419049 0.000000 0.000000 0.000000 23.402315 6.215828 -6.086046 5.695702 -49.587998 -90.855053 178.864078 -89.472441 179.531927 36.216011 -28.765158 -10.172315 -0.418262 1.303975 -0.000000 0.000000 0.000000 0.000000 0.000000 0.000000 0.000000 -3.906291 -2.237672 -8.011923 68.559599 62.405339 -11.570187 -174.589712 60.049399 179.669707 -14.293244 21.276772 -2.856455 -0.106039 -1.268325 0.000000 0.000000 0.000000 0.000000 0.000000 0.000000 0.000000 
4.694111 17.390490 1.023944 -173.627662 -67.240749 -174.215855 3.232976 -3.620267 -8.611624 0.638797 -4.305599 -5.424000 -4.261228 -4.345258 -5.250041 6.912624 -0.960984 4.315878 -0.770967 -0.256059 3.399683 0.000000 0.000000 0.000000 23.961945 5.434188 -5.819847 5.641967 -48.976460 -92.079424 -0.483437 -84.708586 -0.479041 36.834824 -28.550261 -10.283996 -0.430656 1.312168 -0.000000 0.000000 0.000000 0.000000 0.000000 0.000000 0.000000 -3.773431 -2.094775 -8.074183 69.313732 62.555310 -10.956026 -174.605094 60.435993 179.668863 -14.248645 21.253722 -2.843522 -0.110730 -1.267850 0.000000 0.000000 0.000000 0.000000 0.000000 0.000000 0.000000 
